<svg width="203" height="36" viewBox="0 0 203 36" fill="none" xmlns="http://www.w3.org/2000/svg">
<g clip-path="url(#clip0)">
<path fill-rule="evenodd" clip-rule="evenodd" d="M65.0983 12.246C64.4508 12.246 63.9084 12.0563 63.4708 11.6769C63.0509 11.2809 62.8407 10.7942 62.8407 10.2168C62.8407 9.63935 63.0509 9.16089 63.4708 8.78142C63.9084 8.38548 64.4508 8.1875 65.0983 8.1875C65.7458 8.1875 66.2797 8.38548 66.6997 8.78142C67.1371 9.16089 67.3559 9.63935 67.3559 10.2168C67.3559 10.7942 67.1371 11.2809 66.6997 11.6769C66.2797 12.0563 65.7458 12.246 65.0983 12.246ZM65.8803 13.8794C66.4487 13.8794 66.9096 14.3399 66.9096 14.908V26.5608C66.9096 27.1289 66.4487 27.5894 65.8803 27.5894H64.2639C63.6955 27.5894 63.2346 27.1289 63.2346 26.5608V14.908C63.2346 14.3399 63.6955 13.8794 64.2639 13.8794H65.8803ZM53.5647 27.7627C52.2871 27.7627 51.1323 27.5564 50.0996 27.144C49.0846 26.7315 48.2797 26.1376 47.6846 25.3622C47.2937 24.8527 47.0274 24.2827 46.8858 23.6522C46.7598 23.0914 47.2372 22.6152 47.8123 22.6152H49.7476C50.2865 22.6152 50.705 23.048 50.9264 23.539C51.0585 23.8317 51.2466 24.0847 51.4909 24.298C51.9809 24.7105 52.646 24.9167 53.486 24.9167C54.3435 24.9167 55.0173 24.727 55.5073 24.3475C55.9973 23.9516 56.2422 23.4401 56.2422 22.8132C56.2422 22.3018 56.0761 21.8811 55.7435 21.5511C55.411 21.2211 54.991 20.9654 54.4834 20.7839C53.9934 20.586 53.3109 20.3715 52.4359 20.1405C51.246 19.8105 50.2747 19.4888 49.5222 19.1754C48.7871 18.8454 48.1485 18.3587 47.6059 17.7153C47.0809 17.0553 46.8184 16.181 46.8184 15.0921C46.8184 14.0692 47.0896 13.1783 47.6322 12.4194C48.1746 11.6604 48.9358 11.083 49.9158 10.687C50.8959 10.2746 52.0159 10.0684 53.2759 10.0684C55.1661 10.0684 56.6972 10.5056 57.8697 11.38C58.7633 12.0241 59.3558 12.8636 59.6475 13.8984C59.8102 14.4759 59.3251 14.9931 58.7247 14.9931H56.7664C56.2214 14.9931 55.8003 14.5369 55.5043 14.0796C55.3736 13.8777 55.1996 13.6955 54.9823 13.533C54.4923 13.137 53.8359 12.939 53.0133 12.939C52.2958 12.939 51.7184 13.1123 51.2811 13.4587C50.8608 13.8052 50.651 14.3084 50.651 14.9683C50.651 15.4303 50.8084 15.818 51.1234 16.1315C51.4559 16.4284 51.8585 16.6759 52.3309 16.8739C52.8209 17.0553 53.5033 17.2698 54.3785 17.5173C55.5684 17.8473 56.5397 18.1772 57.2923 18.5072C58.0448 18.8371 58.6922 19.3321 59.2346 19.992C59.7773 20.6519 60.0485 21.5181 60.0485 22.5905C60.0485 23.5144 59.7947 24.3723 59.2873 25.1642C58.7797 25.9561 58.0361 26.5913 57.0561 27.0697C56.0761 27.5317 54.9123 27.7627 53.5647 27.7627ZM94.2246 20.9168C94.2324 20.7626 94.2363 20.6028 94.2363 20.4376C94.2363 19.1012 93.9301 17.9216 93.3177 16.8987C92.7226 15.8593 91.8737 15.0591 90.7713 14.4982C89.6865 13.9373 88.4526 13.6568 87.07 13.6568C85.635 13.6568 84.3664 13.9455 83.2638 14.523C82.1613 15.1004 81.3037 15.9253 80.6913 16.9977C80.0788 18.0701 79.7726 19.3157 79.7726 20.7345C79.7726 22.1369 80.0788 23.3742 80.6913 24.4466C81.3214 25.519 82.1876 26.3522 83.2901 26.9461C84.4101 27.5235 85.6701 27.8122 87.07 27.8122C88.8026 27.8122 90.2639 27.3915 91.4538 26.5501C92.2338 25.9878 92.8484 25.3263 93.2975 24.5656C93.6515 23.9661 93.158 23.2835 92.4614 23.2835H90.5288C90.1454 23.2835 89.8054 23.5062 89.5695 23.8082C88.9793 24.5638 88.1198 24.9416 86.9913 24.9416C86.0463 24.9416 85.2501 24.6611 84.6026 24.1002C83.9552 23.5392 83.5876 22.7638 83.5002 21.7739H93.268C93.7673 21.7739 94.1994 21.4152 94.2246 20.9168ZM89.4063 17.3194C90.0714 17.8473 90.4127 18.5568 90.43 19.4477H83.5263C83.6663 18.5238 84.0426 17.8061 84.655 17.2947C85.2851 16.7667 86.055 16.5027 86.965 16.5027C87.9276 16.5027 88.7412 16.775 89.4063 17.3194ZM95.9737 20.7345C95.9737 19.3157 96.2799 18.0783 96.8926 17.0224C97.505 15.9501 98.3537 15.1252 99.4387 14.5477C100.524 13.9538 101.766 13.6568 103.166 13.6568C104.969 13.6568 106.456 14.0857 107.629 14.9437C108.472 15.54 109.118 16.3105 109.566 17.255C109.855 17.8641 109.358 18.5073 108.684 18.5073H106.782C106.346 18.5073 105.974 18.2194 105.73 17.8579C105.533 17.5649 105.282 17.3194 104.978 17.1214C104.488 16.775 103.875 16.6017 103.14 16.6017C102.09 16.6017 101.259 16.9647 100.646 17.6906C100.034 18.4 99.7276 19.4147 99.7276 20.7345C99.7276 22.0379 100.034 23.0525 100.646 23.7784C101.259 24.4879 102.09 24.8426 103.14 24.8426C104.345 24.8426 105.211 24.4313 105.739 23.6087C105.972 23.2443 106.342 22.9618 106.775 22.9618H108.672C109.35 22.9618 109.846 23.6111 109.547 24.2192C109.1 25.1289 108.461 25.8893 107.629 26.5006C106.439 27.375 104.951 27.8122 103.166 27.8122C101.766 27.8122 100.524 27.5235 99.4387 26.9461C98.3537 26.3522 97.505 25.5273 96.8926 24.4714C96.2799 23.399 95.9737 22.1534 95.9737 20.7345ZM123.84 14.3744C122.983 13.9125 122.002 13.6815 120.9 13.6815C119.937 13.6815 119.062 13.8547 118.275 14.2012C117.487 14.5312 116.858 14.9931 116.385 15.587V10.3051C116.385 9.73699 115.924 9.27648 115.356 9.27648H113.739C113.171 9.27648 112.71 9.73699 112.71 10.3051V26.5609C112.71 27.1289 113.171 27.5894 113.739 27.5894H115.356C115.924 27.5894 116.385 27.1289 116.385 26.5609V20.0168C116.385 18.9279 116.674 18.0947 117.251 17.5173C117.846 16.9234 118.651 16.6264 119.666 16.6264C120.664 16.6264 121.451 16.9234 122.029 17.5173C122.606 18.0947 122.895 18.9279 122.895 20.0168V26.5609C122.895 27.1289 123.356 27.5894 123.924 27.5894H125.541C126.109 27.5894 126.57 27.1289 126.57 26.5609V19.5466C126.57 18.3092 126.325 17.2533 125.835 16.3789C125.362 15.488 124.697 14.8199 123.84 14.3744ZM143.583 20.4376C143.583 20.6028 143.58 20.7626 143.572 20.9168C143.547 21.4152 143.114 21.7739 142.615 21.7739H132.847C132.935 22.7638 133.302 23.5392 133.95 24.1002C134.597 24.6611 135.393 24.9416 136.338 24.9416C137.467 24.9416 138.326 24.5638 138.917 23.8082C139.153 23.5062 139.493 23.2835 139.876 23.2835H141.809C142.505 23.2835 142.999 23.9661 142.645 24.5656C142.196 25.3263 141.581 25.9878 140.801 26.5501C139.611 27.3915 138.15 27.8122 136.417 27.8122C135.017 27.8122 133.757 27.5235 132.637 26.9461C131.535 26.3522 130.669 25.519 130.038 24.4466C129.426 23.3742 129.12 22.1369 129.12 20.7345C129.12 19.3157 129.426 18.0701 130.038 16.9977C130.651 15.9253 131.508 15.1004 132.611 14.523C133.714 13.9455 134.982 13.6568 136.417 13.6568C137.8 13.6568 139.034 13.9373 140.118 14.4982C141.221 15.0591 142.07 15.8593 142.665 16.8987C143.277 17.9216 143.583 19.1012 143.583 20.4376ZM139.777 19.4477C139.76 18.5568 139.419 17.8473 138.753 17.3194C138.089 16.775 137.275 16.5027 136.312 16.5027C135.402 16.5027 134.632 16.7667 134.002 17.2947C133.39 17.8061 133.014 18.5238 132.873 19.4477H139.777ZM146.24 17.0224C145.627 18.0783 145.321 19.3157 145.321 20.7345C145.321 22.1534 145.627 23.399 146.24 24.4714C146.852 25.5273 147.701 26.3522 148.786 26.9461C149.871 27.5235 151.113 27.8122 152.513 27.8122C154.298 27.8122 155.786 27.375 156.976 26.5006C157.808 25.8893 158.447 25.1289 158.895 24.2192C159.193 23.6111 158.698 22.9618 158.02 22.9618H156.123C155.69 22.9618 155.319 23.2444 155.086 23.6088C154.558 24.4313 153.692 24.8426 152.487 24.8426C151.437 24.8426 150.606 24.4879 149.993 23.7784C149.381 23.0525 149.075 22.0379 149.075 20.7345C149.075 19.4147 149.381 18.4 149.993 17.6906C150.606 16.9647 151.437 16.6017 152.487 16.6017C153.222 16.6017 153.835 16.775 154.325 17.1214C154.629 17.3194 154.88 17.5649 155.078 17.8578C155.321 18.2194 155.693 18.5073 156.129 18.5073H158.031C158.705 18.5073 159.202 17.8641 158.913 17.255C158.465 16.3105 157.819 15.54 156.976 14.9437C155.803 14.0857 154.316 13.6568 152.513 13.6568C151.113 13.6568 149.871 13.9538 148.786 14.5477C147.701 15.1252 146.852 15.9501 146.24 17.0224ZM171.145 27.5894C170.842 27.5894 170.554 27.4559 170.359 27.2245L165.732 21.7491V26.5609C165.732 27.1289 165.271 27.5894 164.703 27.5894H163.086C162.518 27.5894 162.057 27.1289 162.057 26.5609V10.3051C162.057 9.73699 162.518 9.27648 163.086 9.27648H164.703C165.271 9.27648 165.732 9.73699 165.732 10.3051V19.6951L170.306 14.2469C170.502 14.014 170.79 13.8795 171.095 13.8795H173.029C173.928 13.8795 174.395 14.9508 173.782 15.6087L168.987 20.7592L173.804 25.8545C174.424 26.5104 173.959 27.5894 173.056 27.5894H171.145ZM190.894 20.9168C190.902 20.7626 190.906 20.6028 190.906 20.4376C190.906 19.1012 190.599 17.9216 189.987 16.8987C189.392 15.8593 188.543 15.0591 187.44 14.4982C186.355 13.9373 185.122 13.6568 183.739 13.6568C182.304 13.6568 181.035 13.9455 179.933 14.523C178.83 15.1004 177.973 15.9253 177.36 16.9977C176.748 18.0701 176.442 19.3157 176.442 20.7345C176.442 22.1369 176.748 23.3742 177.36 24.4466C177.99 25.519 178.857 26.3522 179.959 26.9461C181.079 27.5235 182.339 27.8122 183.739 27.8122C185.472 27.8122 186.933 27.3915 188.123 26.5501C188.903 25.9878 189.517 25.3263 189.967 24.5655C190.321 23.9661 189.827 23.2835 189.131 23.2835H187.198C186.815 23.2835 186.475 23.5061 186.239 23.808C185.648 24.5637 184.789 24.9416 183.66 24.9416C182.715 24.9416 181.919 24.6611 181.272 24.1002C180.624 23.5392 180.257 22.7638 180.169 21.7739H189.937C190.436 21.7739 190.869 21.4152 190.894 20.9168ZM186.076 17.3194C186.74 17.8473 187.082 18.5568 187.099 19.4477H180.195C180.335 18.5238 180.712 17.8061 181.324 17.2947C181.954 16.7667 182.724 16.5027 183.634 16.5027C184.597 16.5027 185.41 16.775 186.076 17.3194ZM197.263 16.0078C197.735 15.2819 198.348 14.7127 199.1 14.3002C199.591 14.0374 200.125 13.8583 200.701 13.7629C201.261 13.6701 201.726 14.142 201.726 14.7101V16.3487C201.726 16.8848 201.291 17.3194 200.754 17.3194C199.599 17.3194 198.724 17.5751 198.129 18.0865C197.552 18.598 197.263 19.4889 197.263 20.7592V26.5609C197.263 27.129 196.802 27.5895 196.234 27.5895H194.617C194.049 27.5895 193.588 27.129 193.588 26.5609V14.9081C193.588 14.34 194.049 13.8795 194.617 13.8795H196.234C196.802 13.8795 197.263 14.34 197.263 14.9081V16.0078ZM74.7802 23.3577V16.7254H77.0061C77.5745 16.7254 78.0354 16.2649 78.0354 15.6968V14.908C78.0354 14.34 77.5745 13.8795 77.0061 13.8795H74.7802V11.5176C74.7802 10.9496 74.3194 10.4891 73.7509 10.4891H72.1082C71.5398 10.4891 71.0789 10.9496 71.0789 11.5176V13.8795V16.7254V23.3329C71.0789 26.1706 72.6277 27.5894 75.7252 27.5894H77.0061C77.5745 27.5894 78.0354 27.1289 78.0354 26.5609V25.6978C78.0354 25.1298 77.5745 24.6693 77.0061 24.6693H76.3289C75.7691 24.6693 75.3665 24.5703 75.1214 24.3723C74.8939 24.1578 74.7802 23.8196 74.7802 23.3577Z" fill="#14253F"/>
<g clip-path="url(#clip1)">
<path d="M10.6407 13.1763L19.1099 21.6394C21.4872 24.0151 21.4872 27.727 19.1099 30.1026C16.7326 32.4782 13.018 32.4782 10.6407 30.1026L2.17155 21.6394C-0.057182 19.2638 -0.057182 15.4034 2.17155 13.1763C4.54886 10.8006 8.2634 10.8006 10.6407 13.1763Z" fill="#00DEFF"/>
<path d="M34.8534 14.3621L19.1037 30.1006C16.7264 32.4763 13.0119 32.4763 10.6345 30.1006C8.25724 27.725 8.25724 24.0131 10.6345 21.6374L26.3842 5.89891C28.7615 3.52328 32.4761 3.52328 34.8534 5.89891C37.0821 8.27454 37.0821 11.9865 34.8534 14.3621Z" fill="#0094FF"/>
<path fill-rule="evenodd" clip-rule="evenodd" d="M10.4548 29.9137C8.25883 27.534 8.31876 23.9518 10.6345 21.6376L14.8728 17.4023L19.1099 21.6364C21.4371 23.962 21.4861 27.5682 19.2569 29.9477L19.1037 30.1008C18.2199 30.984 17.1513 31.5388 16.0352 31.7653C14.1511 32.1456 12.1326 31.5904 10.6407 30.0996L10.4548 29.9137Z" fill="#5EF7FF"/>
</g>
</g>
<defs>
<clipPath id="clip0">
<rect width="202" height="36" fill="white" transform="translate(0.5)"/>
</clipPath>
<clipPath id="clip1">
<rect width="36.0255" height="36" fill="white" transform="translate(0.5)"/>
</clipPath>
</defs>
</svg>
